<mxfile host="app.diagrams.net" agent="Mozilla/5.0 (X11; Linux x86_64) AppleWebKit/537.36 (KHTML, like Gecko) Chrome/128.0.0.0 Safari/537.36" version="24.8.6">
  <diagram name="Page-1" id="dtCEn3sRvsV3qLuu3Bqw">
    <mxGraphModel dx="1434" dy="793" grid="1" gridSize="10" guides="1" tooltips="1" connect="1" arrows="1" fold="1" page="1" pageScale="1" pageWidth="827" pageHeight="1169" math="0" shadow="0">
      <root>
        <mxCell id="0" />
        <mxCell id="1" parent="0" />
        <mxCell id="ejB0OYrrUE9aYRwzjbLr-19" value="&lt;font style=&quot;font-size: 18px;&quot;&gt;Raspberry pi hosted web server&lt;/font&gt;&lt;div&gt;&lt;font style=&quot;font-size: 18px;&quot;&gt;ip:192.168.y.y&lt;/font&gt;&lt;/div&gt;" style="rounded=0;whiteSpace=wrap;html=1;fillColor=#dae8fc;strokeColor=#6c8ebf;" vertex="1" parent="1">
          <mxGeometry x="140" y="420" width="200" height="100" as="geometry" />
        </mxCell>
        <mxCell id="ejB0OYrrUE9aYRwzjbLr-20" value="&lt;font style=&quot;font-size: 18px;&quot;&gt;Device - 1&lt;/font&gt;&lt;div&gt;&lt;font size=&quot;3&quot;&gt;(ESP32 hosted api endpoint)&lt;/font&gt;&lt;/div&gt;&lt;div&gt;&lt;font size=&quot;3&quot;&gt;ip: 192.168.x.x&lt;/font&gt;&lt;/div&gt;" style="rounded=0;whiteSpace=wrap;html=1;fillColor=#dae8fc;strokeColor=#6c8ebf;" vertex="1" parent="1">
          <mxGeometry x="515" y="300" width="205" height="110" as="geometry" />
        </mxCell>
        <mxCell id="ejB0OYrrUE9aYRwzjbLr-21" value="&lt;font style=&quot;font-size: 18px;&quot;&gt;Device - 1&lt;/font&gt;&lt;div&gt;&lt;font size=&quot;3&quot;&gt;(ESP32 hosted api endpoint)&lt;/font&gt;&lt;/div&gt;&lt;div&gt;&lt;font size=&quot;3&quot;&gt;ip: 192.168.x.x&lt;/font&gt;&lt;br&gt;&lt;/div&gt;" style="rounded=0;whiteSpace=wrap;html=1;fillColor=#dae8fc;strokeColor=#6c8ebf;" vertex="1" parent="1">
          <mxGeometry x="515" y="430" width="205" height="80" as="geometry" />
        </mxCell>
        <mxCell id="ejB0OYrrUE9aYRwzjbLr-22" value="&lt;font style=&quot;font-size: 18px;&quot;&gt;Device - 1&lt;/font&gt;&lt;div&gt;&lt;font size=&quot;3&quot;&gt;(ESP32 hosted api endpoint)&lt;/font&gt;&lt;/div&gt;&lt;div&gt;&lt;font size=&quot;3&quot;&gt;ip: 192.168.x.x&lt;/font&gt;&lt;br&gt;&lt;/div&gt;" style="rounded=0;whiteSpace=wrap;html=1;fillColor=#dae8fc;strokeColor=#6c8ebf;" vertex="1" parent="1">
          <mxGeometry x="515" y="530" width="210" height="90" as="geometry" />
        </mxCell>
        <mxCell id="ejB0OYrrUE9aYRwzjbLr-26" value="" style="endArrow=classic;html=1;rounded=0;exitX=0;exitY=0.5;exitDx=0;exitDy=0;entryX=1;entryY=0.5;entryDx=0;entryDy=0;fillColor=#dae8fc;strokeColor=#6c8ebf;" edge="1" parent="1" source="ejB0OYrrUE9aYRwzjbLr-20">
          <mxGeometry width="50" height="50" relative="1" as="geometry">
            <mxPoint x="510" y="390" as="sourcePoint" />
            <mxPoint x="340" y="475" as="targetPoint" />
            <Array as="points">
              <mxPoint x="400" y="355" />
            </Array>
          </mxGeometry>
        </mxCell>
        <mxCell id="ejB0OYrrUE9aYRwzjbLr-27" value="" style="endArrow=classic;html=1;rounded=0;exitX=0;exitY=0.5;exitDx=0;exitDy=0;fillColor=#dae8fc;strokeColor=#6c8ebf;" edge="1" parent="1" source="ejB0OYrrUE9aYRwzjbLr-21">
          <mxGeometry width="50" height="50" relative="1" as="geometry">
            <mxPoint x="510" y="480" as="sourcePoint" />
            <mxPoint x="350" y="472.5" as="targetPoint" />
          </mxGeometry>
        </mxCell>
        <mxCell id="ejB0OYrrUE9aYRwzjbLr-28" value="" style="endArrow=classic;html=1;rounded=0;exitX=0;exitY=0.5;exitDx=0;exitDy=0;entryX=1;entryY=0.5;entryDx=0;entryDy=0;fillColor=#dae8fc;strokeColor=#6c8ebf;" edge="1" parent="1" source="ejB0OYrrUE9aYRwzjbLr-22">
          <mxGeometry width="50" height="50" relative="1" as="geometry">
            <mxPoint x="510" y="555" as="sourcePoint" />
            <mxPoint x="340" y="475" as="targetPoint" />
            <Array as="points">
              <mxPoint x="400" y="575" />
            </Array>
          </mxGeometry>
        </mxCell>
        <mxCell id="ejB0OYrrUE9aYRwzjbLr-30" style="edgeStyle=orthogonalEdgeStyle;rounded=0;orthogonalLoop=1;jettySize=auto;html=1;entryX=0.5;entryY=1;entryDx=0;entryDy=0;fillColor=#dae8fc;strokeColor=#6c8ebf;" edge="1" parent="1" source="ejB0OYrrUE9aYRwzjbLr-29" target="ejB0OYrrUE9aYRwzjbLr-19">
          <mxGeometry relative="1" as="geometry" />
        </mxCell>
        <mxCell id="ejB0OYrrUE9aYRwzjbLr-29" value="&lt;font style=&quot;font-size: 18px;&quot;&gt;User Interface&lt;br&gt;Web browser&lt;/font&gt;&lt;div&gt;&lt;font size=&quot;3&quot;&gt;http://192.168.y.y/light-1/on&lt;/font&gt;&lt;/div&gt;&lt;div&gt;&lt;font size=&quot;3&quot;&gt;http://192.168.y.y/light-2/on&lt;/font&gt;&lt;/div&gt;" style="rounded=1;whiteSpace=wrap;html=1;fillColor=#dae8fc;strokeColor=#6c8ebf;" vertex="1" parent="1">
          <mxGeometry x="120" y="600" width="240" height="130" as="geometry" />
        </mxCell>
      </root>
    </mxGraphModel>
  </diagram>
</mxfile>
